<?xml version="1.0" encoding="UTF-8" standalone="no"?>
<svg
   xmlns:dc="http://purl.org/dc/elements/1.1/"
   xmlns:cc="http://creativecommons.org/ns#"
   xmlns:rdf="http://www.w3.org/1999/02/22-rdf-syntax-ns#"
   xmlns:svg="http://www.w3.org/2000/svg"
   xmlns="http://www.w3.org/2000/svg"
   xmlns:sodipodi="http://sodipodi.sourceforge.net/DTD/sodipodi-0.dtd"
   xmlns:inkscape="http://www.inkscape.org/namespaces/inkscape"
   width="60"
   height="48"
   viewBox="0 0 60 48"
   id="svg4202"
   version="1.1"
   inkscape:version="0.91 r13725"
   sodipodi:docname="fancy-rectangles.svg">
  <metadata
     id="metadata4212">
    <rdf:RDF>
      <cc:Work
         rdf:about="">
        <dc:format>image/svg+xml</dc:format>
        <dc:type
           rdf:resource="http://purl.org/dc/dcmitype/StillImage" />
        <dc:title></dc:title>
      </cc:Work>
    </rdf:RDF>
  </metadata>
  <defs
     id="defs4210" />
  <sodipodi:namedview
     pagecolor="#ffffff"
     bordercolor="#666666"
     borderopacity="1"
     objecttolerance="10"
     gridtolerance="10"
     guidetolerance="10"
     inkscape:pageopacity="0"
     inkscape:pageshadow="2"
     inkscape:window-width="1863"
     inkscape:window-height="1056"
     id="namedview4208"
     showgrid="false"
     inkscape:zoom="19.145833"
     inkscape:cx="30"
     inkscape:cy="24"
     inkscape:window-x="57"
     inkscape:window-y="24"
     inkscape:window-maximized="1"
     inkscape:current-layer="Page-1" />
  <g
     id="Page-1"
     fill="none"
     fill-rule="evenodd">
    <g
       id="fancy-rectangles"
       fill="#292929"
       style="fill:#ff7f50;fill-opacity:1">
      <path
         d="M6 12h6v12H6V12zm12 0h6v12h-6V12zm6-12h6v12h-6V0zM12 0h6v12h-6V0zm0 24h6v12h-6V24zM0 0h6v12H0V0zm6 36h6v12H6V36zm12 0h6v12h-6V36zm12-12h6v12h-6V24zM42 0h6v12h-6V0zm-6 12h6v12h-6V12zm12 0h6v12h-6V12zM36 36h6v12h-6V36zm12 0h6v12h-6V36zm-6-12h6v12h-6V24zm12 0h6v12h-6V24z"
         id="path4206"
         style="fill:#ff7f50;fill-opacity:1" />
    </g>
  </g>
</svg>
